<svg viewBox="0 0 1200 675" fill="none" xmlns="http://www.w3.org/2000/svg">
  <rect width="1200" height="675" rx="8" fill="#0f0f13"/>
  <rect x="0" y="0" width="240" height="675" rx="8" fill="#16161d" stroke="#2a2a3a" stroke-width="1"/>
  <rect x="16" y="16" width="28" height="28" rx="6" fill="#d97706"/>
  <text x="54" y="36" fill="#f1f1f7" font-size="14" font-weight="600" font-family="Inter, sans-serif">EIPR-Agent</text>
  <rect x="255" y="20" width="925" height="50" rx="8" fill="#1a1a24" stroke="#2a2a3a" stroke-width="1"/>
  <text x="275" y="50" fill="#f1f1f7" font-size="16" font-weight="700" font-family="Inter, sans-serif">Financial Analysis - Projections</text>
  <rect x="255" y="85" width="220" height="80" rx="8" fill="#1a1a24" stroke="#2a2a3a" stroke-width="1"/>
  <text x="365" y="115" text-anchor="middle" fill="#f1f1f7" font-size="16" font-weight="700" font-family="Inter, sans-serif">&#8377;75L</text>
  <text x="365" y="135" text-anchor="middle" fill="#6b6b80" font-size="10" font-family="Inter, sans-serif">Initial Investment</text>
  <rect x="490" y="85" width="220" height="80" rx="8" fill="#1a1a24" stroke="#2a2a3a" stroke-width="1"/>
  <text x="600" y="115" text-anchor="middle" fill="#10b981" font-size="16" font-weight="700" font-family="Inter, sans-serif">&#8377;1.2 Cr</text>
  <text x="600" y="135" text-anchor="middle" fill="#6b6b80" font-size="10" font-family="Inter, sans-serif">Year 1 Revenue</text>
  <rect x="725" y="85" width="220" height="80" rx="8" fill="#1a1a24" stroke="#2a2a3a" stroke-width="1"/>
  <text x="835" y="115" text-anchor="middle" fill="#f1f1f7" font-size="16" font-weight="700" font-family="Inter, sans-serif">18 mo</text>
  <text x="835" y="135" text-anchor="middle" fill="#6b6b80" font-size="10" font-family="Inter, sans-serif">Break-even</text>
  <rect x="960" y="85" width="220" height="80" rx="8" fill="#1a1a24" stroke="#2a2a3a" stroke-width="1"/>
  <text x="1070" y="115" text-anchor="middle" fill="#fbbf24" font-size="16" font-weight="700" font-family="Inter, sans-serif">7.5/10</text>
  <text x="1070" y="135" text-anchor="middle" fill="#6b6b80" font-size="10" font-family="Inter, sans-serif">Investor Readiness</text>
  <rect x="255" y="180" width="450" height="160" rx="10" fill="#1a1a24" stroke="#2a2a3a" stroke-width="1"/>
  <text x="275" y="205" fill="#f1f1f7" font-size="13" font-weight="600" font-family="Inter, sans-serif">Startup Costs (&#8377;)</text>
  <text x="275" y="230" fill="#a0a0b8" font-size="11" font-family="Inter, sans-serif">Development: &#8377;30,00,000</text>
  <text x="275" y="250" fill="#a0a0b8" font-size="11" font-family="Inter, sans-serif">Marketing: &#8377;15,00,000</text>
  <text x="275" y="270" fill="#a0a0b8" font-size="11" font-family="Inter, sans-serif">Operations: &#8377;12,00,000</text>
  <text x="275" y="290" fill="#a0a0b8" font-size="11" font-family="Inter, sans-serif">Legal &amp; IP: &#8377;8,00,000</text>
  <text x="275" y="315" fill="#fbbf24" font-size="12" font-weight="600" font-family="Inter, sans-serif">Total: &#8377;75,00,000</text>
  <rect x="735" y="180" width="450" height="160" rx="10" fill="#1a1a24" stroke="#2a2a3a" stroke-width="1"/>
  <text x="755" y="205" fill="#f1f1f7" font-size="13" font-weight="600" font-family="Inter, sans-serif">Revenue Projections</text>
  <rect x="755" y="220" width="120" height="60" rx="6" fill="#16161d" stroke="#2a2a3a" stroke-width="1"/>
  <text x="815" y="245" text-anchor="middle" fill="#f1f1f7" font-size="14" font-weight="700" font-family="Inter, sans-serif">&#8377;1.2Cr</text>
  <text x="815" y="265" text-anchor="middle" fill="#6b6b80" font-size="9" font-family="Inter, sans-serif">Year 1</text>
  <rect x="885" y="220" width="120" height="60" rx="6" fill="#16161d" stroke="#2a2a3a" stroke-width="1"/>
  <text x="945" y="245" text-anchor="middle" fill="#f1f1f7" font-size="14" font-weight="700" font-family="Inter, sans-serif">&#8377;3.5Cr</text>
  <text x="945" y="265" text-anchor="middle" fill="#6b6b80" font-size="9" font-family="Inter, sans-serif">Year 2</text>
  <rect x="1015" y="220" width="120" height="60" rx="6" fill="#16161d" stroke="#2a2a3a" stroke-width="1"/>
  <text x="1075" y="245" text-anchor="middle" fill="#f1f1f7" font-size="14" font-weight="700" font-family="Inter, sans-serif">&#8377;8.2Cr</text>
  <text x="1075" y="265" text-anchor="middle" fill="#6b6b80" font-size="9" font-family="Inter, sans-serif">Year 3</text>
  <text x="755" y="310" fill="#a0a0b8" font-size="11" font-family="Inter, sans-serif">CAC: &#8377;2,500 | LTV: &#8377;45,000 | LTV:CAC: 18x</text>
  <rect x="255" y="355" width="925" height="130" rx="10" fill="#1a1a24" stroke="#2a2a3a" stroke-width="1"/>
  <text x="275" y="380" fill="#f1f1f7" font-size="13" font-weight="600" font-family="Inter, sans-serif">Funding Strategy (India)</text>
  <text x="275" y="405" fill="#a0a0b8" font-size="11" font-family="Inter, sans-serif">Recommended: Bootstrap + Angel (&#8377;25L) + Seed (&#8377;50L) + Grant</text>
  <rect x="275" y="420" width="80" height="22" rx="4" fill="#10b981" fill-opacity="0.15"/>
  <text x="315" y="435" text-anchor="middle" fill="#10b981" font-size="10" font-family="Inter, sans-serif">Startup India</text>
  <rect x="365" y="420" width="80" height="22" rx="4" fill="#10b981" fill-opacity="0.15"/>
  <text x="405" y="435" text-anchor="middle" fill="#10b981" font-size="10" font-family="Inter, sans-serif">MSME Scheme</text>
  <rect x="455" y="420" width="120" height="22" rx="4" fill="#10b981" fill-opacity="0.15"/>
  <text x="515" y="435" text-anchor="middle" fill="#10b981" font-size="10" font-family="Inter, sans-serif">BIRAC Biotech</text>
  <rect x="255" y="500" width="925" height="50" rx="10" fill="#1a1a24" stroke="#2a2a3a" stroke-width="1"/>
  <text x="275" y="530" fill="#a0a0b8" font-size="12" font-family="Inter, sans-serif">Financial analysis complete for AI Health Diagnostics</text>
  <rect x="1000" y="510" width="140" height="28" rx="6" fill="#d97706"/>
  <text x="1070" y="529" text-anchor="middle" fill="#fff" font-size="11" font-weight="600" font-family="Inter, sans-serif">Next: Report</text>
</svg>
