<svg viewBox="0 0 1200 675" fill="none" xmlns="http://www.w3.org/2000/svg">
  <rect width="1200" height="675" rx="8" fill="#0f0f13"/>
  <rect x="0" y="0" width="240" height="675" rx="8" fill="#16161d" stroke="#2a2a3a" stroke-width="1"/>
  <rect x="16" y="16" width="28" height="28" rx="6" fill="#d97706"/>
  <text x="54" y="36" fill="#f1f1f7" font-size="14" font-weight="600" font-family="Inter, sans-serif">EIPR-Agent</text>
  <rect x="12" y="65" width="216" height="36" rx="6" fill="#d97706" fill-opacity="0.15"/>
  <text x="120" y="88" text-anchor="middle" fill="#fbbf24" font-size="12" font-weight="600" font-family="Inter, sans-serif">Dashboard</text>
  <rect x="12" y="109" width="216" height="36" rx="6" fill="transparent"/>
  <text x="120" y="132" text-anchor="middle" fill="#6b6b80" font-size="12" font-family="Inter, sans-serif">Projects</text>
  <rect x="255" y="20" width="925" height="56" rx="8" fill="#1a1a24" stroke="#2a2a3a" stroke-width="1"/>
  <text x="275" y="52" fill="#f1f1f7" font-size="20" font-weight="700" font-family="Inter, sans-serif">Project Title</text>
  <rect x="255" y="90" width="925" height="40" rx="8" fill="transparent"/>
  <rect x="275" y="96" width="120" height="28" rx="6" fill="#d97706" fill-opacity="0.15"/>
  <text x="335" y="115" text-anchor="middle" fill="#fbbf24" font-size="11" font-weight="600" font-family="Inter, sans-serif">Opportunities</text>
  <text x="410" y="115" fill="#6b6b80" font-size="11" font-family="Inter, sans-serif">/</text>
  <rect x="420" y="96" width="120" height="28" rx="6" fill="transparent"/>
  <text x="480" y="115" text-anchor="middle" fill="#6b6b80" font-size="11" font-family="Inter, sans-serif">IP Analysis</text>
  <text x="555" y="115" fill="#6b6b80" font-size="11" font-family="Inter, sans-serif">/</text>
  <rect x="565" y="96" width="120" height="28" rx="6" fill="transparent"/>
  <text x="625" y="115" text-anchor="middle" fill="#6b6b80" font-size="11" font-family="Inter, sans-serif">Strategy</text>
  <text x="700" y="115" fill="#6b6b80" font-size="11" font-family="Inter, sans-serif">/</text>
  <rect x="710" y="96" width="120" height="28" rx="6" fill="transparent"/>
  <text x="770" y="115" text-anchor="middle" fill="#6b6b80" font-size="11" font-family="Inter, sans-serif">Finance</text>
  <text x="845" y="115" fill="#6b6b80" font-size="11" font-family="Inter, sans-serif">/</text>
  <rect x="855" y="96" width="120" height="28" rx="6" fill="transparent"/>
  <text x="915" y="115" text-anchor="middle" fill="#6b6b80" font-size="11" font-family="Inter, sans-serif">Report</text>
  <rect x="255" y="145" width="450" height="160" rx="10" fill="#1a1a24" stroke="#2a2a3a" stroke-width="1"/>
  <rect x="275" y="165" width="36" height="36" rx="8" fill="#10b981" fill-opacity="0.2"/>
  <text x="293" y="189" text-anchor="middle" fill="#10b981" font-size="16" font-weight="700">&#10003;</text>
  <text x="322" y="189" fill="#10b981" font-size="14" font-weight="600" font-family="Inter, sans-serif">Opportunities</text>
  <text x="322" y="206" fill="#a0a0b8" font-size="12" font-family="Inter, sans-serif">Completed - 5 opportunities found</text>
  <rect x="275" y="215" width="100" height="24" rx="6" fill="#d97706" fill-opacity="0.15"/>
  <text x="325" y="232" text-anchor="middle" fill="#fbbf24" font-size="10" font-family="Inter, sans-serif">Unit I &amp; II</text>
  <rect x="735" y="145" width="450" height="160" rx="10" fill="#1a1a24" stroke="#2a2a3a" stroke-width="1"/>
  <rect x="755" y="165" width="36" height="36" rx="8" fill="#d97706" fill-opacity="0.2"/>
  <text x="773" y="189" text-anchor="middle" fill="#fbbf24" font-size="16" font-weight="700">&#8594;</text>
  <text x="802" y="189" fill="#fbbf24" font-size="14" font-weight="600" font-family="Inter, sans-serif">IP Analysis</text>
  <text x="802" y="206" fill="#a0a0b8" font-size="12" font-family="Inter, sans-serif">Patent, trademark &amp; copyright analysis</text>
  <rect x="755" y="215" width="100" height="24" rx="6" fill="#d97706" fill-opacity="0.15"/>
  <text x="805" y="232" text-anchor="middle" fill="#fbbf24" font-size="10" font-family="Inter, sans-serif">Unit IV &amp; V</text>
  <rect x="255" y="320" width="450" height="160" rx="10" fill="#1a1a24" stroke="#2a2a3a" stroke-width="1"/>
  <rect x="275" y="340" width="36" height="36" rx="8" fill="#6b6b80" fill-opacity="0.2"/>
  <text x="293" y="364" text-anchor="middle" fill="#6b6b80" font-size="16">?</text>
  <text x="322" y="362" fill="#a0a0b8" font-size="14" font-weight="600" font-family="Inter, sans-serif">Strategy</text>
  <text x="322" y="380" fill="#a0a0b8" font-size="12" font-family="Inter, sans-serif">SWOC, Porter's, 4Ps analysis</text>
  <rect x="735" y="320" width="450" height="160" rx="10" fill="#1a1a24" stroke="#2a2a3a" stroke-width="1"/>
  <rect x="755" y="340" width="36" height="36" rx="8" fill="#6b6b80" fill-opacity="0.2"/>
  <text x="773" y="364" text-anchor="middle" fill="#6b6b80" font-size="16">?</text>
  <text x="802" y="362" fill="#a0a0b8" font-size="14" font-weight="600" font-family="Inter, sans-serif">Finance</text>
  <text x="802" y="380" fill="#a0a0b8" font-size="12" font-family="Inter, sans-serif">Revenue, costs, funding projections</text>
  <rect x="255" y="495" width="920" height="80" rx="10" fill="#1a1a24" stroke="#2a2a3a" stroke-width="1"/>
  <rect x="275" y="515" width="36" height="36" rx="8" fill="#6b6b80" fill-opacity="0.2"/>
  <text x="293" y="539" text-anchor="middle" fill="#6b6b80" font-size="16">?</text>
  <text x="322" y="537" fill="#a0a0b8" font-size="14" font-weight="600" font-family="Inter, sans-serif">Report</text>
  <text x="322" y="555" fill="#a0a0b8" font-size="12" font-family="Inter, sans-serif">EIPR case study with all agent outputs</text>
</svg>
